<svg width="44" height="44" viewBox="0 0 44 44" fill="none" xmlns="http://www.w3.org/2000/svg">
<rect width="44" height="44" fill="white"/>
<path d="M26.2778 28.2H18.7222C17.9708 28.2 17.2501 27.9155 16.7188 27.4092C16.1874 26.9028 15.8889 26.2161 15.8889 25.5V16.5C15.8889 16.2613 15.7894 16.0324 15.6123 15.8636C15.4351 15.6948 15.1949 15.6 14.9444 15.6C14.694 15.6 14.4537 15.6948 14.2766 15.8636C14.0995 16.0324 14 16.2613 14 16.5V25.5C14 26.6935 14.4975 27.8381 15.3831 28.682C16.2687 29.5259 17.4698 30 18.7222 30H26.2778C26.5283 30 26.7685 29.9052 26.9456 29.7364C27.1227 29.5676 27.2222 29.3387 27.2222 29.1C27.2222 28.8613 27.1227 28.6324 26.9456 28.4636C26.7685 28.2948 26.5283 28.2 26.2778 28.2ZM31 18.246C30.9902 18.1633 30.9712 18.0819 30.9433 18.003V17.922C30.8979 17.8295 30.8374 17.7444 30.7639 17.67L25.0972 12.27C25.0191 12.2 24.9299 12.1423 24.8328 12.099H24.7478L24.4456 12H20.6111C19.8597 12 19.139 12.2845 18.6076 12.7908C18.0763 13.2972 17.7778 13.9839 17.7778 14.7V23.7C17.7778 24.4161 18.0763 25.1028 18.6076 25.6092C19.139 26.1155 19.8597 26.4 20.6111 26.4H28.1667C28.9181 26.4 29.6388 26.1155 30.1701 25.6092C30.7015 25.1028 31 24.4161 31 23.7V18.3V18.246ZM25.3333 15.069L27.7794 17.4H26.2778C26.0273 17.4 25.7871 17.3052 25.61 17.1364C25.4328 16.9676 25.3333 16.7387 25.3333 16.5V15.069ZM29.1111 23.7C29.1111 23.9387 29.0116 24.1676 28.8345 24.3364C28.6574 24.5052 28.4171 24.6 28.1667 24.6H20.6111C20.3606 24.6 20.1204 24.5052 19.9433 24.3364C19.7662 24.1676 19.6667 23.9387 19.6667 23.7V14.7C19.6667 14.4613 19.7662 14.2324 19.9433 14.0636C20.1204 13.8948 20.3606 13.8 20.6111 13.8H23.4444V16.5C23.4444 17.2161 23.743 17.9028 24.2743 18.4092C24.8057 18.9155 25.5263 19.2 26.2778 19.2H29.1111V23.7Z" fill="#FB1553"/>
</svg>
