<svg width="44" height="44" viewBox="0 0 44 44" fill="none" xmlns="http://www.w3.org/2000/svg">
<rect width="44" height="44" fill="white"/>
<path fill-rule="evenodd" clip-rule="evenodd" d="M7.50188 18H13.9213L7.22101 26.3753C6.6972 27.0301 7.16337 28 8.00188 28H15.0019C15.5542 28 16.0019 27.5523 16.0019 27V26H10.0825L16.7827 17.6247C17.3066 16.9699 16.8404 16 16.0019 16H7.50188V18ZM23.0019 26.7C23.0019 27.1418 23.36 27.5 23.8019 27.5H25.0019V20H23.0019V20.8542C22.2689 20.0238 21.1965 19.5 20.0018 19.5C17.7927 19.5 16.0018 21.2909 16.0018 23.5C16.0018 25.7091 17.7927 27.5 20.0018 27.5C21.1965 27.5 22.2689 26.9762 23.0019 26.1458V26.7ZM26.0018 26.7C26.0018 27.1418 26.36 27.5 26.8018 27.5H28.0018V16.5H26.0018V26.7ZM20.0018 25.5C21.1064 25.5 22.0018 24.6046 22.0018 23.5C22.0018 22.3954 21.1064 21.5 20.0018 21.5C18.8972 21.5 18.0018 22.3954 18.0018 23.5C18.0018 24.6046 18.8972 25.5 20.0018 25.5ZM35.0018 23.5C35.0018 24.6046 34.1064 25.5 33.0018 25.5C31.8972 25.5 31.0018 24.6046 31.0018 23.5C31.0018 22.3954 31.8972 21.5 33.0018 21.5C34.1064 21.5 35.0018 22.3954 35.0018 23.5ZM37.0018 23.5C37.0018 25.7091 35.211 27.5 33.0018 27.5C30.7927 27.5 29.0018 25.7091 29.0018 23.5C29.0018 21.2909 30.7927 19.5 33.0018 19.5C35.211 19.5 37.0018 21.2909 37.0018 23.5Z" fill="#0062F3"/>
</svg>
