<svg width="34" height="33" viewBox="0 0 34 33" fill="none" xmlns="http://www.w3.org/2000/svg">
<path d="M24.3223 30.8326C16.8419 33.3807 9.81914 33.1525 4.22671 26.89C-2.10948 19.7908 -1.29423 8.67295 6.48655 3.20909C13.8811 -1.97587 27.3402 -1.34202 27.9266 8.54617C31.7884 15.3411 30.3581 27.6633 24.3223 30.8326Z" fill="#ED9D11"/>
<path d="M27.569 28.4874C21.7192 33.3809 12.737 32.9372 7.14464 26.6746C0.808499 19.5752 1.62376 8.45717 9.40448 2.99323C16.799 -2.19182 26.482 0.685952 30.8444 8.33041C34.7348 15.1382 33.19 23.7968 27.569 28.4874Z" fill="#FCD165"/>
<path d="M27.569 28.4874C21.7192 33.3809 12.737 32.9372 7.14464 26.6746C0.808499 19.5752 1.62376 8.45717 9.40448 2.99323C16.799 -2.19182 26.482 0.685952 30.8444 8.33041C34.7348 15.1382 33.19 23.7968 27.569 28.4874Z" stroke="#FCC938" stroke-width="0.5708" stroke-miterlimit="10"/>
<path d="M26.5257 27.0174C21.4339 31.239 13.6817 30.7319 8.96181 25.2806C3.71268 19.2082 4.48503 9.83965 10.9928 5.19974C17.2288 0.762667 25.4959 3.05726 29.3004 9.53539C32.7474 15.3923 31.4458 22.948 26.5257 27.0174Z" fill="#FCC938"/>
<path d="M26.5257 27.0174C21.4339 31.239 13.6817 30.7319 8.96181 25.2806C3.71268 19.2082 4.48503 9.83965 10.9928 5.19974C17.2288 0.762667 25.4959 3.05726 29.3004 9.53539C32.7474 15.3923 31.4458 22.948 26.5257 27.0174Z" stroke="#EAB328" stroke-width="0.5708" stroke-miterlimit="10"/>
<path d="M12.2358 24.5964C7.25846 18.6001 8.13093 9.39648 14.4242 4.85804C15.7543 3.90725 17.1846 3.28608 18.6578 2.94379C16.0118 2.81702 13.3228 3.52694 10.9772 5.20033C4.4694 9.84019 3.69705 19.196 8.94619 25.281C12.6935 29.6166 18.3431 30.8083 23.0059 29.0461C19.2013 29.5152 15.0964 28.0446 12.2358 24.5964Z" fill="url(#paint0_linear)"/>
<defs>
<linearGradient id="paint0_linear" x1="7.83302" y1="7.41898" x2="23.0114" y2="29.0581" gradientUnits="userSpaceOnUse">
<stop stop-color="#FFE08D" stop-opacity="0"/>
<stop offset="0.2757" stop-color="#FFDC7D" stop-opacity="0.2757"/>
<stop offset="1" stop-color="#FFD257"/>
</linearGradient>
</defs>
</svg>
