<svg width="99" height="26" viewBox="0 0 99 26" fill="none" xmlns="http://www.w3.org/2000/svg">
<path d="M29.9995 13.269C26.9873 9.51589 21.4326 7 15.0771 7C8.7232 7 3.16925 9.51589 0.15625 13.269H11.933C13.7571 11.1343 17.1193 9.70101 20.9666 9.70101C24.8124 9.70101 28.1746 11.1343 29.9995 13.269Z" fill="#017A6E"/>
<path d="M0.134766 18.731C3.14853 22.4825 8.70248 25 15.0564 25C21.4088 25 26.9635 22.4825 29.9788 18.731H18.2013C16.378 20.8657 13.0149 22.2974 9.16919 22.2974C5.32191 22.2974 1.95889 20.8657 0.134766 18.731Z" fill="#D97012"/>
<path d="M5.79188 14.9785H4.55954C4.24764 14.9785 3.93955 15.0894 3.80304 15.2948C3.66654 15.4995 2.85896 16.7078 2.85896 16.7078C2.85896 16.7078 2.00485 15.4503 1.89962 15.2948C1.79438 15.1394 1.41537 14.9785 0.97688 14.9785C0.53839 14.9785 0 14.9785 0 14.9785C0 14.9785 1.62737 16.9656 1.71354 17.0702C1.79972 17.1749 2.22295 17.3835 2.81778 17.3835C3.4126 17.3835 3.80304 17.2741 3.96776 17.0702C4.13096 16.8679 5.03082 15.7479 5.03082 15.7479C5.03082 15.7479 5.03082 16.9203 5.03082 17.0702C5.03082 17.2202 5.28247 17.3835 5.79188 17.3835C6.30053 17.3835 6.64141 17.2241 6.64141 17.0702V15.2948C6.64065 15.1324 6.34324 14.9785 5.79188 14.9785ZM27.8277 16.7883C27.5158 16.7883 27.3359 16.6797 27.3359 16.3805C27.3359 16.083 27.3359 15.2948 27.3359 15.2948C27.3359 15.1292 27.0316 14.9785 26.5268 14.9785C26.0227 14.9785 25.7245 15.0027 25.7245 15.2948C25.7245 15.587 25.7245 16.8359 25.7245 16.8359C25.7245 16.8359 23.3429 16.8359 23.0722 16.8359C22.8 16.8359 22.6841 16.8008 22.6841 16.5805C22.6841 16.3595 22.6841 16.3595 22.6841 16.3595C22.6841 16.3595 24.3724 16.3595 24.6637 16.3595C24.9543 16.3595 25.1983 16.3735 25.1983 16.1236C25.1983 15.8736 25.1983 15.8736 25.1983 15.8736C25.1983 15.8736 23.3437 15.8736 23.0722 15.8736C22.8 15.8736 22.6841 15.8361 22.6841 15.6658C22.6841 15.4948 22.6841 15.4948 22.6841 15.4948C22.6841 15.4948 24.5463 15.4948 24.8185 15.4948C25.0908 15.4948 25.392 15.4042 25.392 15.2948C25.392 15.1855 25.392 14.9785 25.392 14.9785C25.392 14.9785 22.6383 14.9785 19.2913 14.9785C19.061 14.9785 19.061 14.7403 19.061 14.7403V14.6879C19.061 14.5419 18.7765 14.3755 18.3091 14.3755C17.8454 14.3755 17.4481 14.4958 17.4481 14.6879V14.752L17.4428 14.741C17.4428 14.741 17.4428 14.9793 17.2117 14.9793H15.2808C15.0513 14.9793 15.0513 14.741 15.0513 14.741L15.0444 14.752V14.6879C15.0444 14.5419 14.7607 14.3755 14.2948 14.3755C13.8288 14.3755 13.4323 14.4958 13.4323 14.6879V14.7403C13.4323 14.7403 13.4323 14.9785 13.2028 14.9785H7.50238C7.21107 14.9785 7.05855 15.0816 7.05855 15.2948C7.05855 15.451 7.05855 17.0702 7.05855 17.0702C7.05855 17.2249 7.24996 17.3835 7.7159 17.3835H10.8974C11.143 17.3835 11.4564 17.2288 11.4564 17.0632C11.4564 16.8992 11.4564 16.8351 11.4564 16.8351C11.4564 16.8351 9.26396 16.8351 9.04281 16.8351C8.82166 16.8351 8.66991 16.7828 8.66991 16.5704C8.66991 16.3587 8.66991 16.3587 8.66991 16.3587C8.66991 16.3587 10.4079 16.3587 10.6397 16.3587C10.8738 16.3587 11.1842 16.3634 11.1842 16.1181C11.1842 15.8728 11.1842 15.8728 11.1842 15.8728C11.1842 15.8728 9.27617 15.8728 9.05501 15.8728C8.83386 15.8728 8.66991 15.8572 8.66991 15.7151C8.66991 15.5745 8.66991 15.5745 8.66991 15.5745C8.66991 15.5745 12.2777 15.5745 12.685 15.5745C13.0929 15.5745 13.4315 15.7049 13.4315 16.1236V17.071C13.4315 17.2171 13.8113 17.3842 14.2574 17.3842C14.7043 17.3842 15.0436 17.2233 15.0436 17.071V16.1236C15.0436 15.8846 15.248 15.5745 15.6949 15.5745H16.8014C17.169 15.5745 17.4473 15.7455 17.4473 16.1025V17.0702C17.4473 17.2163 17.7325 17.3835 18.1993 17.3835C18.6652 17.3835 19.0595 17.2624 19.0595 17.0702V16.1025C19.0595 15.8642 19.3622 15.5745 19.6344 15.5745H20.4695C20.76 15.5745 21.0719 15.7666 21.0719 16.1236V17.071C21.0719 17.2171 21.2062 17.3842 21.5562 17.3842H29.205C29.555 17.3842 29.8395 17.2437 29.8395 17.071C29.8395 16.9 29.8395 16.7883 29.8395 16.7883C29.8395 16.7883 28.1373 16.7883 27.8277 16.7883Z" fill="#017A6E"/>
<path d="M49.5578 6.51807L47.8486 11.2577H46.7041L45 6.51807H46.142L47.2764 9.74071L48.4108 6.51807H49.5578Z" fill="#0390BF"/>
<path d="M51.248 4.74365H50.1094V5.94304H51.248V4.74365Z" fill="#0390BF"/>
<path d="M51.248 6.5083H50.1094V11.2576H51.248V6.5083Z" fill="#0390BF"/>
<path d="M60.3494 11.2647H59.2706C59.2361 11.1164 59.2015 10.9935 59.1627 10.8119C58.8939 11.1164 58.4649 11.2682 57.8766 11.2682C57.4704 11.2682 57.1341 11.1717 56.8712 10.9786C56.5635 10.7523 56.4102 10.4232 56.4102 9.99157C56.4102 9.37301 56.6436 8.9466 57.113 8.71497C57.328 8.60705 57.7671 8.51054 58.4295 8.42543C58.8972 8.36226 59.1324 8.23328 59.1324 8.03324C59.1324 7.85688 59.0607 7.7165 58.9208 7.61209C58.7801 7.50768 58.6166 7.45416 58.4278 7.45416C58.234 7.45416 58.0696 7.50856 57.9314 7.61736C57.7755 7.73493 57.6878 7.90251 57.6668 8.11835H56.5585C56.5838 7.75072 56.6681 7.45241 56.808 7.2278C56.9487 7.00143 57.1754 6.82595 57.4889 6.70049C57.7805 6.58643 58.1084 6.53027 58.4775 6.53027C59.724 6.54168 60.3485 7.15761 60.3485 8.37805V11.2647H60.3494ZM59.1147 8.96239C58.9992 9.05891 58.7978 9.13612 58.5079 9.19227C58.1792 9.25544 57.966 9.31598 57.8673 9.37301C57.6659 9.48005 57.5639 9.66869 57.5639 9.93454C57.5639 10.2767 57.7367 10.4469 58.0814 10.4469C58.2399 10.4469 58.4042 10.4101 58.5745 10.332C58.7439 10.2557 58.8711 10.1635 58.9596 10.0547C59.0751 9.90734 59.1324 9.68799 59.1324 9.39933C59.1324 9.34669 59.129 9.27386 59.1231 9.17648C59.1181 9.07908 59.1147 9.00714 59.1147 8.96239Z" fill="#0390BF"/>
<path d="M65.4961 8.94428C65.4961 9.58038 65.347 10.1077 65.0461 10.5245C64.698 11.0044 64.2024 11.2465 63.5577 11.2527H63.5493C62.9711 11.2527 62.5143 11.0193 62.0929 10.5517V12.4547H60.9434V6.5376H62.0786C62.0786 6.5376 62.0727 7.22723 62.0786 7.23337C62.0786 7.23337 62.6719 6.54198 63.4599 6.54198C63.8535 6.54198 64.2201 6.65341 64.5573 6.87539C64.8961 7.1 65.1371 7.38252 65.2812 7.72558C65.4253 8.06864 65.4961 8.47487 65.4961 8.94428ZM64.2235 8.94428C64.2235 8.03442 63.8662 7.5773 63.154 7.5773C62.4587 7.5773 62.1106 8.05636 62.1106 9.01008C62.1106 9.41017 62.221 9.72954 62.4385 9.96819C62.6391 10.1849 62.8793 10.2928 63.1633 10.2928C63.4507 10.2928 63.6934 10.1814 63.8864 9.95942C64.1114 9.71024 64.2235 9.37156 64.2235 8.94428Z" fill="#0390BF"/>
<path d="M70.0506 11.2704H68.8816V8.35391C68.8816 8.04068 68.8328 7.81958 68.7367 7.68973C68.6204 7.53794 68.4173 7.46336 68.1273 7.46336C67.8433 7.46336 67.6217 7.56075 67.4658 7.75641C67.3107 7.95294 67.2315 8.19949 67.2315 8.49692V11.2704H66.0625V4.7417H67.2306V7.17996C67.32 6.98343 67.4843 6.82462 67.7253 6.70705C67.9681 6.58685 68.2344 6.52806 68.526 6.52806C68.9432 6.52806 69.2921 6.64037 69.5727 6.8641C69.8922 7.1203 70.0514 7.4888 70.0514 7.96347V11.2704H70.0506Z" fill="#0390BF"/>
<path d="M79.7412 11.27H78.5722V8.35356C78.5722 8.04034 78.5233 7.81923 78.4272 7.68938C78.3109 7.53759 78.1087 7.46301 77.8179 7.46301C77.5339 7.46301 77.3122 7.5604 77.1563 7.75606C77.0012 7.9526 76.922 8.19914 76.922 8.49658V11.27H75.7539V6.51807H76.922V7.17874C77.0105 6.98221 77.1757 6.8234 77.4167 6.70583C77.6586 6.58563 77.9249 6.52684 78.2174 6.52684C78.6346 6.52684 78.9827 6.63915 79.2633 6.86288C79.5819 7.11908 79.7412 7.48758 79.7412 7.96225V11.27Z" fill="#0390BF"/>
<path d="M55.8065 11.27H54.6375V8.35356C54.6375 8.04034 54.5895 7.81923 54.4925 7.68938C54.3762 7.53759 54.174 7.46301 53.8832 7.46301C53.5992 7.46301 53.3775 7.5604 53.2216 7.75606C53.0665 7.9526 52.9873 8.19914 52.9873 8.49658V11.27H51.8184V6.51807H52.9865V7.17874C53.075 6.98221 53.2393 6.8234 53.4812 6.70583C53.7231 6.58563 53.9894 6.52684 54.2818 6.52684C54.699 6.52684 55.0479 6.63915 55.3278 6.86288C55.6472 7.11908 55.8065 7.48758 55.8065 7.96225V11.27Z" fill="#0390BF"/>
<path d="M84.3255 9.19907H81.4043C81.4305 9.56845 81.5434 9.8536 81.7398 10.0563C81.9092 10.2239 82.1165 10.3063 82.3592 10.3063C82.5388 10.3063 82.7014 10.2625 82.8447 10.1721C82.988 10.0826 83.0815 9.9624 83.1245 9.80973H84.269C84.1426 10.2677 83.9142 10.6204 83.5847 10.8722C83.2568 11.1223 82.8658 11.2487 82.4149 11.2487C80.999 11.2487 80.291 10.4309 80.291 8.79284C80.291 8.10233 80.4705 7.54958 80.8279 7.13545C81.1869 6.7222 81.6884 6.51514 82.3365 6.51514C83.6614 6.51426 84.3255 7.41095 84.3255 9.19907ZM83.1801 8.4489C83.1515 8.1462 83.0562 7.90668 82.8885 7.7312C82.7225 7.55835 82.5286 7.46974 82.3112 7.46974C82.0997 7.46974 81.9159 7.55221 81.7634 7.71453C81.5923 7.88913 81.4878 8.1348 81.4448 8.4489H83.1801Z" fill="#0390BF"/>
<path d="M75.1713 8.88863C75.1713 9.61072 74.969 10.1889 74.562 10.6232C74.1557 11.0584 73.6062 11.2751 72.9109 11.2751C72.2055 11.2751 71.6476 11.0558 71.2397 10.6145C70.8301 10.1749 70.627 9.59932 70.627 8.88951C70.627 8.17444 70.8284 7.59624 71.2346 7.15579C71.64 6.71446 72.1988 6.49512 72.9109 6.49512C73.6231 6.49512 74.1802 6.71973 74.5864 7.16807C74.9766 7.60589 75.1713 8.17883 75.1713 8.88863ZM73.9788 8.88512C73.9788 7.9586 73.6223 7.49797 72.9101 7.49797C72.192 7.49797 71.833 7.9586 71.833 8.88512C71.833 9.80989 72.1929 10.2732 72.9101 10.2732C73.6223 10.2732 73.9788 9.81077 73.9788 8.88512Z" fill="#0390BF"/>
<path d="M96.212 2.43388C96.1623 1.40031 95.349 0.579076 94.3561 0.579076C94.3502 0.579076 94.3477 0.579954 94.3418 0.579954C93.8007 0.579076 93.2639 0.832642 92.8939 1.32222C92.7119 1.56438 92.5922 1.85392 92.529 2.15399C92.4607 2.47862 92.4835 2.81028 92.427 3.13403C92.3756 3.43673 92.2955 3.73153 92.1834 4.01405C91.7022 5.2424 90.6234 6.01713 89.3339 6.01713C88.7069 6.01713 88.0917 5.80831 87.5835 5.42402C86.626 4.70193 85.8861 3.32706 85.5245 2.16364C85.334 1.55035 85.1916 0.977411 84.7062 0.543981C84.4154 0.283396 84.0791 0.11757 83.7327 0.0465016C83.6046 0.0175478 83.4731 0 83.3341 0C82.6607 0 82.0573 0.334285 81.6628 0.859841C81.662 0.861596 81.6603 0.86335 81.6595 0.865105C81.6502 0.875634 81.6426 0.886162 81.635 0.898446C81.6249 0.914239 81.6131 0.929154 81.6021 0.945825C81.5836 0.971269 81.5667 0.997591 81.5499 1.02479C81.5482 1.02742 81.5474 1.02918 81.5457 1.03093C80.9186 2.02852 81.0889 3.40339 81.9629 4.18778C82.2503 4.44397 82.5655 4.56242 82.8975 4.62121C83.0374 4.65279 83.1841 4.66946 83.3341 4.66946C83.3349 4.66946 83.3349 4.66946 83.3349 4.66946C83.6999 4.69052 84.0741 4.68087 84.4398 4.73088C85.7209 4.90987 87.2716 5.60476 87.7663 6.96208C87.8885 7.29812 87.9686 7.70172 87.9686 8.0632C87.9686 8.25886 87.9416 8.43083 87.8919 8.58086C87.8161 8.91778 87.6711 9.25908 87.4225 9.44947C87.0095 9.76358 86.4566 9.63987 86.0319 9.92502C85.9147 10.0031 85.8111 10.1031 85.7259 10.2172C85.6054 10.3778 85.5254 10.5594 85.4815 10.7489C85.4529 10.8621 85.4369 10.9805 85.4369 11.1025C85.4369 11.8518 85.9973 12.458 86.6892 12.458C86.8376 12.458 86.9783 12.4282 87.109 12.3773C87.3197 12.2984 87.5152 12.1589 87.6669 11.9553C87.9172 11.6236 87.9998 11.2025 87.9239 10.8121C87.8565 10.4532 87.8852 9.9373 88.1203 9.64776C88.3411 9.37577 88.6799 9.26786 89.0044 9.21697C89.3499 9.16169 89.7115 9.20117 90.0495 9.09589C90.3495 9.00376 90.6167 8.81249 90.8114 8.55454C90.9867 8.32028 91.1156 8.02986 91.1662 7.73506C91.4603 6.01538 92.041 4.73878 94.1134 4.6484C94.4278 4.63524 94.7472 4.6484 95.0439 4.52031C95.3388 4.39133 95.5967 4.18427 95.7956 3.92105C96.1218 3.48762 96.2575 2.95066 96.212 2.43388Z" fill="#0390BF"/>
<g clip-path="url(#clip0)">
<path d="M86.854 21.2399L86.8558 21.2392L86.854 21.2399ZM91.4708 22.1742C91.406 21.9526 91.2879 21.7662 91.1113 21.6043L91.1095 21.6029C90.8681 21.3884 90.5601 21.2463 90.1677 21.1675C89.8046 21.0915 89.2712 21.0542 88.5371 21.0542C87.7364 21.0542 87.2206 21.1281 86.8549 21.2385C86.6916 21.2857 86.5149 21.3863 86.3836 21.4833V21.2702H85.3477V25.5665H86.3889V22.839C86.3889 22.1264 87.3085 21.8449 88.2237 21.8449H88.6826C89.5987 21.8449 90.5263 22.1264 90.5263 22.839V25.568H91.5534V23.2245C91.5542 22.6927 91.5285 22.3684 91.4708 22.1742Z" fill="#FF0000"/>
<path d="M73.959 21.0423H74.9949C75.0073 20.6026 75.0251 20.1833 75.0854 19.9927C75.1334 19.802 75.2417 19.6402 75.3988 19.5164C75.579 19.3454 75.832 19.2209 76.1569 19.1351C76.4702 19.0682 77.0019 19.0113 77.7005 19.0014L78.6734 19L77.7369 19.7232C77.7032 19.7232 77.373 19.7246 77.341 19.7246C75.9633 19.7246 76.0601 20.4232 76.0601 21.0423H78.4825L77.5034 21.8324H76.0361L76.0415 25.5617H74.9949V21.8316H73.959V21.0423Z" fill="#FF0000"/>
<path d="M72.9238 19.6289V20.471H73.9597V19.6289H72.9238Z" fill="#FF0000"/>
<path d="M64.9219 23.3147C64.9219 23.8255 64.8464 24.2455 64.6973 24.56C64.5464 24.8871 64.0307 25.6251 61.5283 25.6251C59.026 25.6251 58.5102 24.8871 58.3593 24.56C58.2102 24.2455 58.1348 23.8255 58.1348 23.3147C58.1348 22.804 58.2102 22.384 58.3593 22.0695C58.5102 21.7424 59.026 21.0044 61.5283 21.0044C64.0307 21.0044 64.5464 21.7424 64.6973 22.0695C64.8464 22.384 64.9219 22.804 64.9219 23.3147ZM63.6117 22.327C63.5149 22.1413 63.348 22.021 63.0897 21.9506C62.8217 21.8824 62.3512 21.843 61.5274 21.8331C60.7046 21.843 60.2332 21.8824 59.9651 21.9506C59.7068 22.0217 59.5399 22.142 59.4432 22.327C59.3668 22.4691 59.2799 22.8152 59.2799 23.314C59.2799 23.8128 59.3668 24.159 59.4432 24.3018C59.5391 24.4875 59.7068 24.6071 59.9651 24.6782C60.2332 24.7464 60.7037 24.7858 61.5274 24.7949C62.3503 24.7858 62.8217 24.7464 63.0897 24.6782C63.348 24.6071 63.5149 24.4868 63.6117 24.3018C63.6889 24.1597 63.775 23.8135 63.775 23.314C63.775 22.8145 63.6889 22.4698 63.6117 22.327Z" fill="#0D3996"/>
<path d="M84.5879 23.3147C84.5879 23.8255 84.5124 24.2455 84.3633 24.56C84.2124 24.8871 83.6967 25.6251 81.1943 25.6251C78.692 25.6251 78.1763 24.8871 78.0254 24.56C77.8762 24.2455 77.8008 23.8255 77.8008 23.3147C77.8008 22.804 77.8762 22.384 78.0254 22.0695C78.1763 21.7424 78.692 21.0044 81.1943 21.0044C83.6967 21.0044 84.2124 21.7424 84.3633 22.0695C84.5124 22.384 84.5879 22.804 84.5879 23.3147ZM83.2777 22.327C83.1809 22.1413 83.0141 22.021 82.7557 21.9506C82.4877 21.8824 82.0163 21.843 81.1935 21.8331C80.3706 21.843 79.8992 21.8824 79.6312 21.9506C79.3728 22.0217 79.206 22.142 79.1092 22.327C79.032 22.4691 78.9459 22.8152 78.9459 23.314C78.9459 23.8128 79.0329 24.159 79.1092 24.3018C79.2051 24.4875 79.3728 24.6071 79.6312 24.6782C79.8992 24.7464 80.3697 24.7858 81.1935 24.7949C82.0163 24.7858 82.4877 24.7464 82.7557 24.6782C83.0141 24.6071 83.1809 24.4868 83.2777 24.3018C83.354 24.1597 83.441 23.8135 83.441 23.314C83.441 22.8145 83.354 22.4698 83.2777 22.327Z" fill="#FF0000"/>
<path d="M57.3053 22.1673C57.2397 21.9457 57.1207 21.7593 56.9432 21.5975L56.9414 21.596C56.6982 21.3815 56.3875 21.2394 55.9925 21.1606C55.6268 21.0846 55.0995 21.0473 54.3592 21.0473C53.5514 21.0473 53.0037 21.0987 52.6335 21.2084H52.6318C52.3264 21.2956 52.0725 21.4582 51.8852 21.6798C51.6669 21.4469 51.3961 21.2879 51.0588 21.1979C50.6753 21.0958 49.9634 21.0459 49.0651 21.0459C48.3905 21.0459 47.9271 21.0839 47.6484 21.162L47.6457 21.1627C47.4354 21.2253 47.2347 21.3315 47.0368 21.4828C47.0368 21.3484 47.0368 21.2626 47.0368 21.2626H46V25.5589H47.035V22.8314C47.035 22.1188 47.9484 21.8374 48.8725 21.8374H49.335C50.2581 21.8374 51.1813 22.1188 51.1813 22.8314V25.5604H52.2155V22.8314C52.2155 22.1188 53.1191 21.8374 54.0423 21.8374H54.5056C55.4288 21.8374 56.3546 22.1188 56.3546 22.8314V25.5604H57.3888V23.2176C57.3888 22.6851 57.363 22.3615 57.3053 22.1673Z" fill="#0D3996"/>
<path d="M98.4594 23.6285H98.9894C98.9965 23.5279 99 23.4238 99 23.3147C99 22.804 98.9254 22.384 98.7754 22.0695C98.6245 21.7424 98.1088 21.0044 95.6065 21.0044C93.1041 21.0044 92.5884 21.7424 92.4375 22.0695C92.2883 22.384 92.2129 22.804 92.2129 23.3147C92.2129 23.8255 92.2883 24.2455 92.4375 24.56C92.5884 24.8871 93.1041 25.6251 95.6065 25.6251C98.1088 25.6251 98.6245 24.8871 98.7754 24.56C98.7887 24.5318 98.8012 24.5009 98.8136 24.4713H97.5638C97.467 24.5649 97.3374 24.6324 97.1687 24.6789C96.9007 24.7471 96.4293 24.7865 95.6065 24.7956C94.7836 24.7865 94.3122 24.7471 94.0442 24.6789C93.7858 24.6078 93.619 24.4875 93.5222 24.3025C93.4627 24.1927 93.3979 23.962 93.3713 23.6341H98.4576V23.6285H98.4594ZM94.045 21.9506C94.3131 21.8824 94.7836 21.843 95.6073 21.8331C96.4302 21.843 96.9007 21.8824 97.1696 21.9506C97.4279 22.0217 97.5948 22.142 97.6916 22.327C97.7422 22.4199 97.7954 22.6014 97.8283 22.8546H93.3882C93.4201 22.6007 93.4743 22.4199 93.5249 22.327C93.619 22.142 93.7867 22.0217 94.045 21.9506Z" fill="#FF0000"/>
<path d="M72.9238 21.0415V25.5602H73.9597V21.0415H72.9238Z" fill="#0D3996"/>
<path d="M71.9694 22.0692C71.8184 21.7421 71.3027 21.0041 68.8004 21.0041C67.8426 21.0041 67.1768 21.1124 66.7108 21.2644V19.0005H65.6758V25.572H66.7108V25.3645C67.1768 25.5164 67.8426 25.6248 68.8004 25.6248C71.3027 25.6248 71.8184 24.8868 71.9694 24.5597C72.1185 24.2452 72.1939 23.8252 72.1939 23.3144C72.1939 22.8037 72.1185 22.3837 71.9694 22.0692ZM70.8837 24.3022C70.7879 24.4879 70.6201 24.6075 70.3618 24.6786C70.0937 24.7468 69.6232 24.7862 68.7995 24.7953C67.9766 24.7862 67.6517 24.7468 67.3845 24.6786C67.1262 24.6075 66.9585 24.4872 66.8626 24.3022C66.8022 24.1896 66.7357 23.9497 66.7099 23.6078V23.0218C66.7357 22.6799 66.8022 22.44 66.8626 22.3274C66.9585 22.1417 67.1262 22.0221 67.3845 21.951C67.6526 21.8828 67.9766 21.8434 68.7995 21.8342C69.6224 21.8434 70.0937 21.8835 70.3618 21.951C70.6201 22.0221 70.787 22.1424 70.8837 22.3274C70.9601 22.4695 71.0471 22.8157 71.0471 23.3151C71.048 23.8139 70.961 24.1601 70.8837 24.3022Z" fill="#0D3996"/>
</g>
<defs>
<clipPath id="clip0">
<rect width="53" height="6.625" fill="white" transform="translate(46 19)"/>
</clipPath>
</defs>
</svg>
